<mxfile host="65bd71144e" scale="3" border="0">
    <diagram id="2GQ6wtPqilNh9MBXlXRb" name="Page-1">
        <mxGraphModel dx="579" dy="540" grid="1" gridSize="10" guides="1" tooltips="1" connect="1" arrows="1" fold="1" page="1" pageScale="1" pageWidth="850" pageHeight="1100" math="0" shadow="0">
            <root>
                <mxCell id="0"/>
                <mxCell id="1" parent="0"/>
                <mxCell id="2" value="species [S4]" style="swimlane;fontStyle=1;childLayout=stackLayout;horizontal=1;startSize=30;horizontalStack=0;resizeParent=1;resizeParentMax=0;resizeLast=0;collapsible=1;marginBottom=0;fontSize=14;fillColor=#FFB366;strokeColor=#000000;fontColor=#000000;strokeWidth=2;" vertex="1" parent="1">
                    <mxGeometry x="40" y="40" width="160" height="120" as="geometry"/>
                </mxCell>
                <mxCell id="3" value="+ TaxonConcepID: int" style="text;strokeColor=none;fillColor=#FFB366;align=left;verticalAlign=middle;spacingLeft=4;spacingRight=4;overflow=hidden;points=[[0,0.5],[1,0.5]];portConstraint=eastwest;rotatable=0;fontColor=#000000;opacity=70;fontStyle=1;" vertex="1" parent="2">
                    <mxGeometry y="30" width="160" height="30" as="geometry"/>
                </mxCell>
                <mxCell id="4" value="+ TaxonUsageID: int" style="text;strokeColor=none;fillColor=#FFB366;align=left;verticalAlign=middle;spacingLeft=4;spacingRight=4;overflow=hidden;points=[[0,0.5],[1,0.5]];portConstraint=eastwest;rotatable=0;fontColor=#000000;opacity=70;" vertex="1" parent="2">
                    <mxGeometry y="60" width="160" height="30" as="geometry"/>
                </mxCell>
                <mxCell id="6" value="+ ..." style="text;strokeColor=none;fillColor=#FFB366;align=left;verticalAlign=middle;spacingLeft=4;spacingRight=4;overflow=hidden;points=[[0,0.5],[1,0.5]];portConstraint=eastwest;rotatable=0;fontColor=#000000;opacity=70;" vertex="1" parent="2">
                    <mxGeometry y="90" width="160" height="30" as="geometry"/>
                </mxCell>
                <mxCell id="39" style="edgeStyle=none;rounded=0;html=1;exitX=1;exitY=0.5;exitDx=0;exitDy=0;entryX=0;entryY=0.5;entryDx=0;entryDy=0;strokeColor=#000000;strokeWidth=2;" edge="1" parent="1" source="8" target="21">
                    <mxGeometry relative="1" as="geometry">
                        <Array as="points">
                            <mxPoint x="230" y="245"/>
                            <mxPoint x="230" y="175"/>
                        </Array>
                    </mxGeometry>
                </mxCell>
                <mxCell id="8" value="coverconvert [S4]" style="swimlane;fontStyle=1;childLayout=stackLayout;horizontal=1;startSize=30;horizontalStack=0;resizeParent=1;resizeParentMax=0;resizeLast=0;collapsible=1;marginBottom=0;fontSize=14;fillColor=#B3B3B3;strokeColor=#4D4D4D;fontColor=#000000;strokeWidth=2;" vertex="1" parent="1">
                    <mxGeometry x="40" y="200" width="160" height="90" as="geometry"/>
                </mxCell>
                <mxCell id="9" value="+ cover_scale: text" style="text;strokeColor=none;fillColor=#B3B3B3;align=left;verticalAlign=middle;spacingLeft=4;spacingRight=4;overflow=hidden;points=[[0,0.5],[1,0.5]];portConstraint=eastwest;rotatable=0;fontColor=#000000;opacity=70;fontStyle=1;" vertex="1" parent="8">
                    <mxGeometry y="30" width="160" height="30" as="geometry"/>
                </mxCell>
                <mxCell id="10" value="+ value: int" style="text;strokeColor=none;fillColor=#B3B3B3;align=left;verticalAlign=middle;spacingLeft=4;spacingRight=4;overflow=hidden;points=[[0,0.5],[1,0.5]];portConstraint=eastwest;rotatable=0;fontColor=#000000;opacity=70;" vertex="1" parent="8">
                    <mxGeometry y="60" width="160" height="30" as="geometry"/>
                </mxCell>
                <mxCell id="40" style="edgeStyle=none;rounded=0;html=1;exitX=1;exitY=0.5;exitDx=0;exitDy=0;entryX=0;entryY=0.5;entryDx=0;entryDy=0;strokeColor=#000000;strokeWidth=2;" edge="1" parent="1" source="12" target="22">
                    <mxGeometry relative="1" as="geometry">
                        <Array as="points">
                            <mxPoint x="250" y="375"/>
                            <mxPoint x="250" y="205"/>
                        </Array>
                    </mxGeometry>
                </mxCell>
                <mxCell id="12" value="layers [list]" style="swimlane;fontStyle=1;childLayout=stackLayout;horizontal=1;startSize=30;horizontalStack=0;resizeParent=1;resizeParentMax=0;resizeLast=0;collapsible=1;marginBottom=0;fontSize=14;fillColor=#B3B3B3;strokeColor=#4D4D4D;fontColor=#000000;strokeWidth=2;" vertex="1" parent="1">
                    <mxGeometry x="40" y="330" width="160" height="90" as="geometry"/>
                </mxCell>
                <mxCell id="13" value="+ layer_id: custom" style="text;strokeColor=none;fillColor=#B3B3B3;align=left;verticalAlign=middle;spacingLeft=4;spacingRight=4;overflow=hidden;points=[[0,0.5],[1,0.5]];portConstraint=eastwest;rotatable=0;fontColor=#000000;opacity=70;fontStyle=1;" vertex="1" parent="12">
                    <mxGeometry y="30" width="160" height="30" as="geometry"/>
                </mxCell>
                <mxCell id="15" value="+ ..." style="text;strokeColor=none;fillColor=#B3B3B3;align=left;verticalAlign=middle;spacingLeft=4;spacingRight=4;overflow=hidden;points=[[0,0.5],[1,0.5]];portConstraint=eastwest;rotatable=0;fontColor=#000000;opacity=70;" vertex="1" parent="12">
                    <mxGeometry y="60" width="160" height="30" as="geometry"/>
                </mxCell>
                <mxCell id="16" value="samples [df]" style="swimlane;fontStyle=1;childLayout=stackLayout;horizontal=1;startSize=30;horizontalStack=0;resizeParent=1;resizeParentMax=0;resizeLast=0;collapsible=1;marginBottom=0;fontSize=14;fillColor=#B3FF66;strokeColor=#000000;fontColor=#000000;strokeWidth=2;" vertex="1" parent="1">
                    <mxGeometry x="280" y="40" width="160" height="210" as="geometry"/>
                </mxCell>
                <mxCell id="17" value="+ record_id: int" style="text;strokeColor=none;fillColor=#B3FF66;align=left;verticalAlign=middle;spacingLeft=4;spacingRight=4;overflow=hidden;points=[[0,0.5],[1,0.5]];portConstraint=eastwest;rotatable=0;fontColor=#000000;opacity=70;fontStyle=1;" vertex="1" parent="16">
                    <mxGeometry y="30" width="160" height="30" as="geometry"/>
                </mxCell>
                <mxCell id="20" value="+ ReleveID: int" style="text;strokeColor=none;fillColor=#B3FF66;align=left;verticalAlign=middle;spacingLeft=4;spacingRight=4;overflow=hidden;points=[[0,0.5],[1,0.5]];portConstraint=eastwest;rotatable=0;fontColor=#000000;opacity=70;" vertex="1" parent="16">
                    <mxGeometry y="60" width="160" height="30" as="geometry"/>
                </mxCell>
                <mxCell id="18" value="+ TaxonUsageID: int" style="text;strokeColor=none;fillColor=#B3FF66;align=left;verticalAlign=middle;spacingLeft=4;spacingRight=4;overflow=hidden;points=[[0,0.5],[1,0.5]];portConstraint=eastwest;rotatable=0;fontColor=#000000;opacity=70;" vertex="1" parent="16">
                    <mxGeometry y="90" width="160" height="30" as="geometry"/>
                </mxCell>
                <mxCell id="21" value="+ cover_scale: text" style="text;strokeColor=none;fillColor=#B3FF66;align=left;verticalAlign=middle;spacingLeft=4;spacingRight=4;overflow=hidden;points=[[0,0.5],[1,0.5]];portConstraint=eastwest;rotatable=0;fontColor=#000000;opacity=70;" vertex="1" parent="16">
                    <mxGeometry y="120" width="160" height="30" as="geometry"/>
                </mxCell>
                <mxCell id="22" value="+ layer_id: custom" style="text;strokeColor=none;fillColor=#B3FF66;align=left;verticalAlign=middle;spacingLeft=4;spacingRight=4;overflow=hidden;points=[[0,0.5],[1,0.5]];portConstraint=eastwest;rotatable=0;fontColor=#000000;opacity=70;" vertex="1" parent="16">
                    <mxGeometry y="150" width="160" height="30" as="geometry"/>
                </mxCell>
                <mxCell id="19" value="+ ..." style="text;strokeColor=none;fillColor=#B3FF66;align=left;verticalAlign=middle;spacingLeft=4;spacingRight=4;overflow=hidden;points=[[0,0.5],[1,0.5]];portConstraint=eastwest;rotatable=0;fontColor=#000000;opacity=70;" vertex="1" parent="16">
                    <mxGeometry y="180" width="160" height="30" as="geometry"/>
                </mxCell>
                <mxCell id="23" value="header [df]" style="swimlane;fontStyle=1;childLayout=stackLayout;horizontal=1;startSize=30;horizontalStack=0;resizeParent=1;resizeParentMax=0;resizeLast=0;collapsible=1;marginBottom=0;fontSize=14;fillColor=#9999FF;strokeColor=#000000;fontColor=#000000;strokeWidth=2;" vertex="1" parent="1">
                    <mxGeometry x="520" y="40" width="160" height="150" as="geometry"/>
                </mxCell>
                <mxCell id="24" value="+ ReleveID: int" style="text;strokeColor=none;fillColor=#9999FF;align=left;verticalAlign=middle;spacingLeft=4;spacingRight=4;overflow=hidden;points=[[0,0.5],[1,0.5]];portConstraint=eastwest;rotatable=0;fontColor=#000000;opacity=70;fontStyle=1;" vertex="1" parent="23">
                    <mxGeometry y="30" width="160" height="30" as="geometry"/>
                </mxCell>
                <mxCell id="25" value="+ relation_id: custom" style="text;strokeColor=none;fillColor=#9999FF;align=left;verticalAlign=middle;spacingLeft=4;spacingRight=4;overflow=hidden;points=[[0,0.5],[1,0.5]];portConstraint=eastwest;rotatable=0;fontColor=#000000;opacity=70;" vertex="1" parent="23">
                    <mxGeometry y="60" width="160" height="30" as="geometry"/>
                </mxCell>
                <mxCell id="26" value="+ syntax_id: int" style="text;strokeColor=none;fillColor=#9999FF;align=left;verticalAlign=middle;spacingLeft=4;spacingRight=4;overflow=hidden;points=[[0,0.5],[1,0.5]];portConstraint=eastwest;rotatable=0;fontColor=#000000;opacity=70;" vertex="1" parent="23">
                    <mxGeometry y="90" width="160" height="30" as="geometry"/>
                </mxCell>
                <mxCell id="29" value="+ ..." style="text;strokeColor=none;fillColor=#9999FF;align=left;verticalAlign=middle;spacingLeft=4;spacingRight=4;overflow=hidden;points=[[0,0.5],[1,0.5]];portConstraint=eastwest;rotatable=0;fontColor=#000000;opacity=70;" vertex="1" parent="23">
                    <mxGeometry y="120" width="160" height="30" as="geometry"/>
                </mxCell>
                <mxCell id="43" style="edgeStyle=none;rounded=0;html=1;exitX=0;exitY=0.5;exitDx=0;exitDy=0;entryX=0;entryY=0.5;entryDx=0;entryDy=0;strokeColor=#000000;strokeWidth=2;" edge="1" parent="1" source="30" target="23">
                    <mxGeometry relative="1" as="geometry">
                        <Array as="points">
                            <mxPoint x="490" y="405"/>
                            <mxPoint x="490" y="115"/>
                        </Array>
                    </mxGeometry>
                </mxCell>
                <mxCell id="30" value="relations [list]" style="swimlane;fontStyle=1;childLayout=stackLayout;horizontal=1;startSize=30;horizontalStack=0;resizeParent=1;resizeParentMax=0;resizeLast=0;collapsible=1;marginBottom=0;fontSize=14;fillColor=#B3B3B3;strokeColor=#4D4D4D;fontColor=#000000;strokeWidth=2;" vertex="1" parent="1">
                    <mxGeometry x="520" y="360" width="160" height="90" as="geometry"/>
                </mxCell>
                <mxCell id="31" value="+ relation_id: custom" style="text;strokeColor=none;fillColor=#B3B3B3;align=left;verticalAlign=middle;spacingLeft=4;spacingRight=4;overflow=hidden;points=[[0,0.5],[1,0.5]];portConstraint=eastwest;rotatable=0;fontColor=#000000;opacity=70;fontStyle=1;" vertex="1" parent="30">
                    <mxGeometry y="30" width="160" height="30" as="geometry"/>
                </mxCell>
                <mxCell id="34" value="+ ..." style="text;strokeColor=none;fillColor=#B3B3B3;align=left;verticalAlign=middle;spacingLeft=4;spacingRight=4;overflow=hidden;points=[[0,0.5],[1,0.5]];portConstraint=eastwest;rotatable=0;fontColor=#000000;opacity=70;" vertex="1" parent="30">
                    <mxGeometry y="60" width="160" height="30" as="geometry"/>
                </mxCell>
                <mxCell id="35" value="syntax [list]" style="swimlane;fontStyle=1;childLayout=stackLayout;horizontal=1;startSize=30;horizontalStack=0;resizeParent=1;resizeParentMax=0;resizeLast=0;collapsible=1;marginBottom=0;fontSize=14;fillColor=#B3B3B3;strokeColor=#4D4D4D;fontColor=#000000;strokeWidth=2;" vertex="1" parent="1">
                    <mxGeometry x="520" y="230" width="160" height="90" as="geometry"/>
                </mxCell>
                <mxCell id="36" value="+ syntax_id: int" style="text;strokeColor=none;fillColor=#B3B3B3;align=left;verticalAlign=middle;spacingLeft=4;spacingRight=4;overflow=hidden;points=[[0,0.5],[1,0.5]];portConstraint=eastwest;rotatable=0;fontColor=#000000;opacity=70;fontStyle=1;" vertex="1" parent="35">
                    <mxGeometry y="30" width="160" height="30" as="geometry"/>
                </mxCell>
                <mxCell id="37" value="+ ..." style="text;strokeColor=none;fillColor=#B3B3B3;align=left;verticalAlign=middle;spacingLeft=4;spacingRight=4;overflow=hidden;points=[[0,0.5],[1,0.5]];portConstraint=eastwest;rotatable=0;fontColor=#000000;opacity=70;" vertex="1" parent="35">
                    <mxGeometry y="60" width="160" height="30" as="geometry"/>
                </mxCell>
                <mxCell id="38" style="edgeStyle=none;html=1;exitX=1;exitY=0.5;exitDx=0;exitDy=0;entryX=0;entryY=0.5;entryDx=0;entryDy=0;rounded=0;strokeWidth=2;strokeColor=#000000;" edge="1" parent="1" source="4" target="16">
                    <mxGeometry relative="1" as="geometry">
                        <Array as="points">
                            <mxPoint x="230" y="115"/>
                            <mxPoint x="230" y="145"/>
                        </Array>
                    </mxGeometry>
                </mxCell>
                <mxCell id="41" style="edgeStyle=none;rounded=0;html=1;exitX=0;exitY=0.5;exitDx=0;exitDy=0;entryX=0;entryY=0.5;entryDx=0;entryDy=0;strokeColor=#000000;strokeWidth=2;" edge="1" parent="1" source="36" target="26">
                    <mxGeometry relative="1" as="geometry">
                        <Array as="points">
                            <mxPoint x="500" y="275"/>
                            <mxPoint x="500" y="145"/>
                        </Array>
                    </mxGeometry>
                </mxCell>
                <mxCell id="45" style="edgeStyle=none;rounded=0;html=1;exitX=0;exitY=0.5;exitDx=0;exitDy=0;entryX=1;entryY=0.5;entryDx=0;entryDy=0;strokeColor=#000000;strokeWidth=2;" edge="1" parent="1" source="24" target="20">
                    <mxGeometry relative="1" as="geometry">
                        <Array as="points">
                            <mxPoint x="470" y="85"/>
                            <mxPoint x="470" y="115"/>
                        </Array>
                    </mxGeometry>
                </mxCell>
            </root>
        </mxGraphModel>
    </diagram>
</mxfile>